<?xml version="1.0" encoding="UTF-8"?>
<svg width="21px" height="18px" viewBox="0 0 21 18" version="1.1" xmlns="http://www.w3.org/2000/svg" xmlns:xlink="http://www.w3.org/1999/xlink">
    <title>@1x􀄪</title>
    <defs>
        <path d="M8.68950931,17.5 C8.99031773,17.5 9.24036473,17.3984608 9.43965031,17.1953825 C9.63893589,16.9923042 9.73857868,16.7384562 9.73857868,16.4338387 C9.73857868,16.2776246 9.71037789,16.1311739 9.65397631,15.9944866 C9.59757473,15.8577992 9.52425268,15.7425913 9.43401015,15.6488629 L7.04258319,13.1181943 L3.67680767,9.94154928 L6.21912014,10.1071675 L19.4396503,10.1071675 C19.7479789,10.1071675 20.0017861,10.0036756 20.2010716,9.79669194 C20.4003572,9.58970825 20.5,9.32219159 20.5,8.99414197 C20.5,8.67390306 20.4003572,8.41029175 20.2010716,8.20330806 C20.0017861,7.99632437 19.7479789,7.89283253 19.4396503,7.89283253 L6.21912014,7.89283253 L3.69413424,8.0504838 L7.04258319,4.87008959 L9.43401015,2.35113715 C9.52425268,2.25740868 9.59757473,2.1402481 9.65397631,1.99965541 C9.71037789,1.85906272 9.73857868,1.71456467 9.73857868,1.56616127 C9.73857868,1.26154376 9.63893589,1.00769584 9.43965031,0.804617505 C9.24036473,0.601539168 8.99031773,0.5 8.68950931,0.5 C8.54662531,0.5 8.41126152,0.529290145 8.28341794,0.587870434 C8.15557436,0.646450724 8.02397067,0.73822651 7.88860688,0.863197795 L0.860970107,8.17401792 C0.620323369,8.40833908 0.5,8.68171376 0.5,8.99414197 C0.5,9.31438089 0.620323369,9.59166092 0.860970107,9.82598208 L7.92244783,17.1485183 C8.14805415,17.3828394 8.4037413,17.5 8.68950931,17.5 Z" id="path-1"></path>
    </defs>
    <g id="Icons" stroke="none" stroke-width="1" fill="none" fill-rule="evenodd">
        <mask id="mask-2" fill="white">
            <use xlink:href="#path-1" transform="translate(10.500000, 9.000000) scale(-1, 1) translate(-10.500000, -9.000000) "></use>
        </mask>
        <use id="􀄪" fill="#212121" fill-rule="nonzero" transform="translate(10.500000, 9.000000) scale(-1, 1) translate(-10.500000, -9.000000) " xlink:href="#path-1"></use>
    </g>
</svg>